<svg xmlns="http://www.w3.org/2000/svg" width="900" height="700" viewBox="0 0 900 700" role="img" aria-labelledby="title desc">
  <title id="title">Product image unavailable</title>
  <desc id="desc">A decorative placeholder used when a product image cannot be loaded.</desc>
  <rect width="900" height="700" fill="#fff9e5"/>
  <rect x="52" y="52" width="796" height="596" rx="24" fill="#ffffff" stroke="#e5dcc3" stroke-width="6"/>
  <circle cx="450" cy="284" r="92" fill="#ff8c00" opacity="0.14"/>
  <path d="M450 178c54 49 88 100 88 154 0 50-39 91-88 91s-88-41-88-91c0-54 34-105 88-154z" fill="#ff5c00" opacity="0.2"/>
  <path d="M450 238c28 27 45 56 45 86 0 26-20 47-45 47s-45-21-45-47c0-30 17-59 45-86z" fill="#ff5c00"/>
  <path d="M450 310c13 12 21 25 21 39 0 12-9 22-21 22s-21-10-21-22c0-14 8-27 21-39z" fill="#ffffff"/>
  <text x="450" y="500" text-anchor="middle" font-family="Inter, Arial, sans-serif" font-size="34" font-weight="700" fill="#1a1a1a">Product image</text>
  <text x="450" y="548" text-anchor="middle" font-family="Inter, Arial, sans-serif" font-size="24" fill="#666666">unavailable</text>
</svg>
